<svg width="28" height="31" viewBox="0 0 28 31" fill="none" xmlns="http://www.w3.org/2000/svg">
<path d="M25.9798 14.0279C25.9798 20.7996 21.0637 27.142 14.3474 28.9976C13.8904 29.1223 13.3919 29.1223 12.9349 28.9976C6.21856 27.142 1.30249 20.7996 1.30249 14.0279V7.94857C1.30249 6.81302 2.16107 5.52515 3.22737 5.09586L10.9408 1.9385C12.6718 1.23225 14.6244 1.23225 16.3554 1.9385L24.0688 5.09586C25.1212 5.52515 25.9936 6.81302 25.9936 7.94857L25.9798 14.0279Z" stroke="#026670" stroke-width="2.07721" stroke-linecap="round" stroke-linejoin="round"/>
<path d="M13.6411 15.939C14.3756 15.939 15.0801 15.6472 15.5995 15.1278C16.1189 14.6084 16.4107 13.9039 16.4107 13.1694C16.4107 12.4348 16.1189 11.7304 15.5995 11.211C15.0801 10.6916 14.3756 10.3998 13.6411 10.3998C12.9065 10.3998 12.2021 10.6916 11.6827 11.211C11.1633 11.7304 10.8715 12.4348 10.8715 13.1694C10.8715 13.9039 11.1633 14.6084 11.6827 15.1278C12.2021 15.6472 12.9065 15.939 13.6411 15.939ZM13.6411 15.939V20.0934" stroke="#026670" stroke-width="2.07721" stroke-miterlimit="10" stroke-linecap="round" stroke-linejoin="round"/>
</svg>
