<svg width="37" height="36" viewBox="0 0 37 36" fill="none" xmlns="http://www.w3.org/2000/svg">
<path d="M12.3173 18.2336L16.2923 22.2251L24.2588 14.2421" stroke="#026670" stroke-width="2.47407" stroke-linecap="round" stroke-linejoin="round"/>
<path d="M16.2263 2.48193C17.3644 1.50879 19.2282 1.50879 20.3828 2.48193L22.9888 4.72508C23.4836 5.15392 24.4073 5.50029 25.067 5.50029H27.871C29.6193 5.50029 31.0543 6.93525 31.0543 8.6836V11.4875C31.0543 12.1308 31.4006 13.071 31.8295 13.5658L34.0726 16.1718C35.0458 17.3099 35.0458 19.1737 34.0726 20.3282L31.8295 22.9343C31.4006 23.4291 31.0543 24.3527 31.0543 25.0125V27.8164C31.0543 29.5648 29.6193 30.9997 27.871 30.9997H25.067C24.4238 30.9997 23.4836 31.3461 22.9888 31.7749L20.3828 34.0181C19.2447 34.9912 17.3809 34.9912 16.2263 34.0181L13.6203 31.7749C13.1255 31.3461 12.2018 30.9997 11.5421 30.9997H8.68866C6.94031 30.9997 5.50535 29.5648 5.50535 27.8164V24.996C5.50535 24.3527 5.15898 23.4291 4.74663 22.9343L2.51997 20.3117C1.56333 19.1737 1.56333 17.3264 2.51997 16.1883L4.74663 13.5658C5.15898 13.071 5.50535 12.1473 5.50535 11.504V8.6671C5.50535 6.91876 6.94031 5.4838 8.68866 5.4838H11.5421C12.1853 5.4838 13.1255 5.13743 13.6203 4.70859L16.2263 2.48193Z" stroke="#026670" stroke-width="2.47407" stroke-linecap="round" stroke-linejoin="round"/>
</svg>
