<svg width="125" height="125" viewBox="0 0 125 125" fill="none" xmlns="http://www.w3.org/2000/svg">
<path d="M62.5012 40.388V67.513M109.414 44.6764V80.0164C109.414 85.803 106.314 91.1764 101.303 94.1214L70.6128 111.843C65.6012 114.736 59.4012 114.736 54.3378 111.843L23.6478 94.1214C21.177 92.6888 19.1266 90.6312 17.7028 88.1553C16.2789 85.6794 15.5317 82.8725 15.5362 80.0164V44.6764C15.5362 38.8897 18.6362 33.5164 23.6478 30.5714L54.3378 12.8497C59.3495 9.95635 65.5495 9.95635 70.6128 12.8497L101.303 30.5714C106.314 33.5164 109.414 38.838 109.414 44.6764Z" stroke="#D9D9D9" stroke-width="7.75" stroke-linecap="round" stroke-linejoin="round"/>
<path d="M62.5 84.0464V84.5631" stroke="#D9D9D9" stroke-width="10.3333" stroke-linecap="round" stroke-linejoin="round"/>
</svg>
