<svg width="24" height="25" viewBox="0 0 24 25" fill="none" xmlns="http://www.w3.org/2000/svg">
<path d="M22 10.5977V13.5977C22 17.5977 20 19.5977 16 19.5977H15.5C15.19 19.5977 14.89 19.7477 14.7 19.9977L13.2 21.9977C12.54 22.8777 11.46 22.8777 10.8 21.9977L9.3 19.9977C9.14 19.7777 8.77 19.5977 8.5 19.5977H8C4 19.5977 2 18.5977 2 13.5977V8.59766C2 4.59766 4 2.59766 8 2.59766H14" stroke="black" stroke-width="1.5" stroke-miterlimit="10" stroke-linecap="round" stroke-linejoin="round"/>
<path d="M19.5 7.59766C20.163 7.59766 20.7989 7.33426 21.2678 6.86542C21.7366 6.39658 22 5.7607 22 5.09766C22 4.43462 21.7366 3.79873 21.2678 3.32989C20.7989 2.86105 20.163 2.59766 19.5 2.59766C18.837 2.59766 18.2011 2.86105 17.7322 3.32989C17.2634 3.79873 17 4.43462 17 5.09766C17 5.7607 17.2634 6.39658 17.7322 6.86542C18.2011 7.33426 18.837 7.59766 19.5 7.59766Z" stroke="black" stroke-width="1.5" stroke-linecap="round" stroke-linejoin="round"/>
<path d="M15.996 11.5977H16.006M11.995 11.5977H12.005M7.995 11.5977H8.003" stroke="black" stroke-width="2" stroke-linecap="round" stroke-linejoin="round"/>
</svg>
