<svg width="24" height="25" viewBox="0 0 24 25" fill="none" xmlns="http://www.w3.org/2000/svg">
<path d="M21.97 18.9277C21.97 19.2877 21.89 19.6577 21.72 20.0177C21.55 20.3777 21.33 20.7177 21.04 21.0377C20.55 21.5777 20.01 21.9677 19.4 22.2177C18.8 22.4677 18.15 22.5977 17.45 22.5977C16.43 22.5977 15.34 22.3577 14.19 21.8677C13.04 21.3777 11.89 20.7177 10.75 19.8877C9.58811 19.0378 8.49169 18.1018 7.47 17.0877C6.45877 16.0697 5.5261 14.9765 4.68 13.8177C3.86 12.6777 3.2 11.5377 2.72 10.4077C2.24 9.26766 2 8.17766 2 7.13766C2 6.45766 2.12 5.80766 2.36 5.20766C2.6 4.59766 2.98 4.03766 3.51 3.53766C4.15 2.90766 4.85 2.59766 5.59 2.59766C5.87 2.59766 6.15 2.65766 6.4 2.77766C6.66 2.89766 6.89 3.07766 7.07 3.33766L9.39 6.60766C9.57 6.85766 9.7 7.08766 9.79 7.30766C9.88 7.51766 9.93 7.72766 9.93 7.91766C9.93 8.15766 9.86 8.39766 9.72 8.62766C9.59 8.85766 9.4 9.09766 9.16 9.33766L8.4 10.1277C8.29 10.2377 8.24 10.3677 8.24 10.5277C8.24 10.6077 8.25 10.6777 8.27 10.7577C8.3 10.8377 8.33 10.8977 8.35 10.9577C8.53 11.2877 8.84 11.7177 9.28 12.2377C9.73 12.7577 10.21 13.2877 10.73 13.8177C11.27 14.3477 11.79 14.8377 12.32 15.2877C12.84 15.7277 13.27 16.0277 13.61 16.2077C13.66 16.2277 13.72 16.2577 13.79 16.2877C13.87 16.3177 13.95 16.3277 14.04 16.3277C14.21 16.3277 14.34 16.2677 14.45 16.1577L15.21 15.4077C15.46 15.1577 15.7 14.9677 15.93 14.8477C16.16 14.7077 16.39 14.6377 16.64 14.6377C16.83 14.6377 17.03 14.6777 17.25 14.7677C17.47 14.8577 17.7 14.9877 17.95 15.1577L21.26 17.5077C21.52 17.6877 21.7 17.8977 21.81 18.1477C21.91 18.3977 21.97 18.6477 21.97 18.9277Z" stroke="black" stroke-width="1.5" stroke-miterlimit="10"/>
<path d="M18.5 9.59766C18.5 8.99766 18.03 8.07766 17.33 7.32766C16.69 6.63766 15.84 6.09766 15 6.09766M22 9.59766C22 5.72766 18.87 2.59766 15 2.59766" stroke="black" stroke-width="1.5" stroke-linecap="round" stroke-linejoin="round"/>
</svg>
