<svg width="268" height="55" viewBox="0 0 268 55" fill="none" xmlns="http://www.w3.org/2000/svg">
<path d="M34.8913 38.5H22.0913V18.5H28.4913V33.38H34.8913V38.5Z" fill="#026670"/>
<path d="M50.6656 16.54C50.5823 16.5722 47.8418 18.6245 44.5751 21.0992C40.1725 24.4278 38.6095 25.6353 38.5522 25.7501C38.4949 25.8741 38.4845 26.2781 38.4949 27.9401C38.5105 29.9144 38.5157 29.9786 38.6199 30.1026C38.7867 30.3046 38.9742 30.4056 39.2243 30.4286C39.5473 30.4607 39.7297 30.3781 40.3862 29.8776L40.9593 29.4415L40.9853 33.7481C41.0114 38.0087 41.0114 38.0592 41.1208 38.1832C41.1781 38.2521 41.2927 38.3531 41.3709 38.4036C41.5115 38.5 41.5636 38.5 44.7366 38.5C47.9095 38.5 47.9616 38.5 48.1023 38.4036C48.1804 38.3531 48.295 38.2521 48.3524 38.1832C48.4618 38.0592 48.4618 38.0179 48.4774 33.8812L48.4878 29.7078H50.9887H53.4895L53.4999 33.8812C53.5155 38.0179 53.5155 38.0592 53.6249 38.1832C53.6823 38.2521 53.7969 38.3531 53.875 38.4036C54.0157 38.5 54.0678 38.5 57.2407 38.5C60.4137 38.5 60.4658 38.5 60.6064 38.4036C60.6846 38.3531 60.7992 38.2521 60.8565 38.1832C60.9659 38.0592 60.9659 38.0087 60.992 33.7481L61.018 29.4415L61.5911 29.8776C61.909 30.1164 62.2476 30.3459 62.3466 30.3827C62.7269 30.5296 63.2584 30.3413 63.4199 30.0016C63.5241 29.7766 63.5293 25.9659 63.4199 25.7409C63.3678 25.6307 61.7839 24.4049 57.4439 21.1267C54.1928 18.6658 51.4836 16.6273 51.4159 16.586C51.2544 16.4941 50.8428 16.4712 50.6656 16.54ZM56.4488 22.3112L61.8256 26.3653V27.2423V28.1146L61.711 28.0228C61.3879 27.7657 51.5201 20.3232 51.4159 20.2635C51.2439 20.1579 50.8845 20.135 50.676 20.2176C50.5458 20.2681 41.3396 27.1734 40.2403 28.0457C40.1517 28.1146 40.1517 28.0779 40.1621 27.2331L40.1778 26.3515L45.5702 22.2745C48.5347 20.0294 50.9887 18.2113 51.0199 18.225C51.0512 18.2388 53.4947 20.0799 56.4488 22.3112ZM55.1984 25.043L59.3248 28.1605V32.6048V37.0538H57.2407H55.1567L55.1463 32.8803C55.1307 28.7436 55.1307 28.7023 55.0212 28.5783C54.9639 28.5094 54.8493 28.4084 54.7712 28.3579C54.6305 28.2615 54.5836 28.2615 50.9887 28.2615C47.3937 28.2615 47.3468 28.2615 47.2061 28.3579C47.128 28.4084 47.0134 28.5094 46.9561 28.5783C46.8466 28.7023 46.8466 28.7436 46.831 32.8803L46.8206 37.0538H44.7366H42.6525V32.6048V28.1559L46.8102 25.0109C49.0922 23.2846 50.9887 21.8843 51.0199 21.898C51.0512 21.9118 52.932 23.3305 55.1984 25.043Z" fill="#026670"/>
<path d="M79.844 38.5L74.948 31.396C74.7773 31.1613 74.6707 30.6493 74.628 29.86H74.5V38.5H68.1V18.5H74.116L79.012 25.604C79.1827 25.8387 79.2893 26.3507 79.332 27.14H79.46V18.5H85.86V38.5H79.844ZM89.0688 38.5V18.5H98.0288C101.634 18.5 104.109 19.268 105.453 20.804C106.797 22.34 107.469 24.9107 107.469 28.516C107.469 32.1 106.797 34.66 105.453 36.196C104.109 37.732 101.634 38.5 98.0288 38.5H89.0688ZM98.1248 23.62H95.4688V33.38H98.1248C98.9994 33.38 99.6288 33.284 100.013 33.092C100.418 32.8787 100.621 32.4093 100.621 31.684V25.316C100.621 24.5907 100.418 24.132 100.013 23.94C99.6288 23.7267 98.9994 23.62 98.1248 23.62Z" fill="#026670"/>
<path d="M125.988 38.5H119.3L120.516 18.5H128.868L131.364 28.676H131.588L134.084 18.5H142.436L143.652 38.5H136.964L136.58 28.804H136.356L133.924 38.5H129.028L126.564 28.804H126.372L125.988 38.5Z" fill="#026670"/>
<path d="M159.674 16.54C159.591 16.5722 156.85 18.6245 153.584 21.0992C149.181 24.4278 147.618 25.6353 147.561 25.7501C147.504 25.8741 147.493 26.2781 147.504 27.9401C147.519 29.9144 147.524 29.9786 147.629 30.1026C147.795 30.3046 147.983 30.4056 148.233 30.4286C148.556 30.4607 148.738 30.3781 149.395 29.8776L149.968 29.4415L149.994 33.7481C150.02 38.0087 150.02 38.0592 150.129 38.1832C150.187 38.2521 150.301 38.3531 150.38 38.4036C150.52 38.5 150.572 38.5 153.745 38.5C156.918 38.5 156.97 38.5 157.111 38.4036C157.189 38.3531 157.304 38.2521 157.361 38.1832C157.47 38.0592 157.47 38.0179 157.486 33.8812L157.496 29.7078H159.997H162.498L162.509 33.8812C162.524 38.0179 162.524 38.0592 162.634 38.1832C162.691 38.2521 162.806 38.3531 162.884 38.4036C163.024 38.5 163.076 38.5 166.249 38.5C169.422 38.5 169.474 38.5 169.615 38.4036C169.693 38.3531 169.808 38.2521 169.865 38.1832C169.975 38.0592 169.975 38.0087 170.001 33.7481L170.027 29.4415L170.6 29.8776C170.918 30.1164 171.256 30.3459 171.355 30.3827C171.736 30.5296 172.267 30.3413 172.429 30.0016C172.533 29.7766 172.538 25.9659 172.429 25.7409C172.376 25.6307 170.793 24.4049 166.453 21.1267C163.202 18.6658 160.492 16.6273 160.425 16.586C160.263 16.4941 159.851 16.4712 159.674 16.54ZM165.457 22.3112L170.834 26.3653V27.2423V28.1146L170.72 28.0228C170.397 27.7657 160.529 20.3232 160.425 20.2635C160.253 20.1579 159.893 20.135 159.685 20.2176C159.554 20.2681 150.348 27.1734 149.249 28.0457C149.16 28.1146 149.16 28.0779 149.171 27.2331L149.186 26.3515L154.579 22.2745C157.543 20.0294 159.997 18.2113 160.029 18.225C160.06 18.2388 162.503 20.0799 165.457 22.3112ZM164.207 25.043L168.333 28.1605V32.6048V37.0538H166.249H164.165L164.155 32.8803C164.139 28.7436 164.139 28.7023 164.03 28.5783C163.973 28.5094 163.858 28.4084 163.78 28.3579C163.639 28.2615 163.592 28.2615 159.997 28.2615C156.402 28.2615 156.355 28.2615 156.215 28.3579C156.137 28.4084 156.022 28.5094 155.965 28.5783C155.855 28.7023 155.855 28.7436 155.84 32.8803L155.829 37.0538H153.745H151.661V32.6048V28.1559L155.819 25.0109C158.101 23.2846 159.997 21.8843 160.029 21.898C160.06 21.9118 161.941 23.3305 164.207 25.043Z" fill="#026670"/>
<path d="M194.549 38.5H187.509L184.885 32.548H183.509V38.5H177.109V18.5H187.189C191.775 18.5 194.069 20.836 194.069 25.508C194.069 28.708 193.077 30.82 191.093 31.844L194.549 38.5ZM183.509 23.62V27.62H184.981C185.749 27.62 186.303 27.5453 186.645 27.396C187.007 27.2253 187.189 26.852 187.189 26.276V24.964C187.189 24.388 187.007 24.0253 186.645 23.876C186.303 23.7053 185.749 23.62 184.981 23.62H183.509ZM203.196 29.796V38.5H196.796V18.5H203.196V26.66H203.324C203.367 26.02 203.474 25.508 203.644 25.124L206.78 18.5H213.692L208.892 28.324L213.852 38.5H206.94L203.644 31.332C203.474 30.948 203.367 30.436 203.324 29.796H203.196ZM228.565 30.948H222.165V33.38H230.005V38.5H215.765V18.5H229.845L229.045 23.62H222.165V26.308H228.565V30.948ZM246.974 23.62H242.334V38.5H235.934V23.62H231.294V18.5H246.974V23.62Z" fill="#026670"/>
</svg>
